<svg version="1.1" xmlns="http://www.w3.org/2000/svg" viewBox="0 0 43.14502526225624 43.55650339971726" width="43.14502526225624" height="43.55650339971726" filter="invert(93%) hue-rotate(180deg)"><!-- svg-source:excalidraw --><metadata></metadata><defs><style class="style-fonts">
      </style></defs><rect x="0" y="0" width="43.14502526225624" height="43.55650339971726" fill="transparent"></rect><g stroke-linecap="round"><g transform="translate(22.680654029582 21.91855619965645) rotate(181.78745389865114 5.234086959185333 0.04026220737796393)"><path d="M0 0 C1.74 0.01, 8.72 0.07, 10.47 0.08 M0 0 C1.74 0.01, 8.72 0.07, 10.47 0.08" stroke="#be4bdb" stroke-width="4" fill="none"></path></g></g><mask></mask><g stroke-linecap="round"><g transform="translate(21.529039064507742 33.55679320481613) rotate(181.78745389865114 -0.08052441475683736 -5.757495655103412)"><path d="M0 0 C-0.03 -1.92, -0.13 -9.6, -0.16 -11.51 M0 0 C-0.03 -1.92, -0.13 -9.6, -0.16 -11.51" stroke="#be4bdb" stroke-width="4" fill="none"></path></g></g><mask></mask><g stroke-linecap="round"><g transform="translate(9.83152363768022 10.170721917398623) rotate(181.78745389865114 5.556184618211773 5.314611373941261)"><path d="M0 0 C1.85 1.77, 9.26 8.86, 11.11 10.63 M0 0 C1.85 1.77, 9.26 8.86, 11.11 10.63" stroke="#be4bdb" stroke-width="4" fill="none"></path></g></g><mask></mask></svg>